<svg width="85" height="85" viewBox="0 0 85 85" fill="none" xmlns="http://www.w3.org/2000/svg">
<rect width="85" height="85" rx="42.5" fill="#1A202C"/>
<path d="M35.6391 45.2282L32.0039 43.84C30.7391 43.349 29.6516 42.4883 28.8831 41.3701C28.1147 40.2519 27.701 38.9282 27.696 37.5714V30.9737H31.9896V37.5714C31.9896 38.5732 32.6193 39.4749 33.5496 39.8327L37.1847 41.2209L35.6391 45.2282Z" fill="url(#paint0_radial_12_77)"/>
<path d="M35.6391 45.2282L32.0039 43.84C30.7391 43.349 29.6516 42.4883 28.8831 41.3701C28.1147 40.2519 27.701 38.9282 27.696 37.5714V30.9737H31.9896V37.5714C31.9896 38.5732 32.6193 39.4749 33.5496 39.8327L37.1847 41.2209L35.6391 45.2282Z" fill="url(#paint1_radial_12_77)"/>
<path d="M35.6391 45.2282L32.0039 43.84C30.7391 43.349 29.6516 42.4883 28.8831 41.3701C28.1147 40.2519 27.701 38.9282 27.696 37.5714V30.9737H31.9896V37.5714C31.9896 38.5732 32.6193 39.4749 33.5496 39.8327L37.1847 41.2209L35.6391 45.2282Z" fill="url(#paint2_radial_12_77)"/>
<path d="M28.8122 22.172C28.712 22.2721 28.6548 22.4153 28.6548 22.5584V30.9737H31.9751V25.3206C31.9751 23.7176 30.8445 22.3294 29.3417 22.0145C29.2474 21.9926 29.149 21.9955 29.0561 22.0231C28.9633 22.0507 28.8792 22.102 28.8122 22.172Z" fill="url(#paint3_linear_12_77)"/>
<g filter="url(#filter0_f_12_77)">
<path d="M29.3303 22.8303C29.2586 22.9356 29.2211 23.0606 29.223 23.1881V30.9737H31.4814V25.7427C31.4814 24.26 30.7128 22.9748 29.6895 22.6843C29.5536 22.6442 29.4276 22.6972 29.3303 22.8303Z" fill="url(#paint4_linear_12_77)"/>
</g>
<path d="M28.3974 27.7535H27.8821C27.3812 27.7535 26.9948 27.3528 26.9948 26.8662V22.773C26.9936 22.6612 26.9682 22.5509 26.9204 22.4497C26.8727 22.3486 26.8036 22.2589 26.718 22.1869C26.6324 22.1149 26.5323 22.0622 26.4244 22.0324C26.3166 22.0027 26.2036 21.9966 26.0932 22.0145C23.7747 22.4439 22 24.5477 22 26.995V31.6034C22 33.2317 22.6469 34.7934 23.7983 35.9448C24.9497 37.0963 26.5114 37.7431 28.1397 37.7431H30.2436C31.2025 37.7431 31.9896 36.9703 31.9896 35.9971V31.3458C31.9866 30.394 31.6072 29.482 30.9341 28.809C30.2611 28.136 29.3492 27.7565 28.3974 27.7535Z" fill="url(#paint5_linear_12_77)"/>
<path d="M28.3974 27.7535H27.8821C27.3812 27.7535 26.9948 27.3528 26.9948 26.8662V22.773C26.9936 22.6612 26.9682 22.5509 26.9204 22.4497C26.8727 22.3486 26.8036 22.2589 26.718 22.1869C26.6324 22.1149 26.5323 22.0622 26.4244 22.0324C26.3166 22.0027 26.2036 21.9966 26.0932 22.0145C23.7747 22.4439 22 24.5477 22 26.995V31.6034C22 33.2317 22.6469 34.7934 23.7983 35.9448C24.9497 37.0963 26.5114 37.7431 28.1397 37.7431H30.2436C31.2025 37.7431 31.9896 36.9703 31.9896 35.9971V31.3458C31.9866 30.394 31.6072 29.482 30.9341 28.809C30.2611 28.136 29.3492 27.7565 28.3974 27.7535Z" fill="url(#paint6_linear_12_77)"/>
<g filter="url(#filter1_f_12_77)">
<path d="M28.23 28.4634C27.6003 28.4634 26.4396 28.0341 26.4396 27.2255V23.6218C26.4387 23.5232 26.4164 23.426 26.3743 23.3368C26.3323 23.2476 26.2715 23.1686 26.196 23.1051C26.1206 23.0416 26.0323 22.9952 25.9373 22.969C25.8422 22.9428 25.7426 22.9375 25.6453 22.9534C23.6045 23.3327 22.8044 25.186 22.8044 27.34V31.3959C22.8044 34.3828 25.017 36.8015 28.0025 36.8015H29.8544C30.6988 36.8015 31.1682 36.1217 31.1682 35.2644V31.1698C31.1554 29.418 29.9689 28.4634 28.23 28.4634Z" fill="url(#paint7_linear_12_77)"/>
</g>
<path d="M48.3911 45.2282L52.0263 43.84C54.6024 42.8525 56.3342 40.3336 56.3342 37.5714V30.9737H52.0406V37.5714C52.0406 38.5732 51.4109 39.4749 50.4806 39.8327L46.8455 41.2209L48.3911 45.2282Z" fill="#D9516D"/>
<path d="M48.3911 45.2282L52.0263 43.84C54.6024 42.8525 56.3342 40.3336 56.3342 37.5714V30.9737H52.0406V37.5714C52.0406 38.5732 51.4109 39.4749 50.4806 39.8327L46.8455 41.2209L48.3911 45.2282Z" fill="url(#paint8_radial_12_77)"/>
<path d="M48.3911 45.2282L52.0263 43.84C54.6024 42.8525 56.3342 40.3336 56.3342 37.5714V30.9737H52.0406V37.5714C52.0406 38.5732 51.4109 39.4749 50.4806 39.8327L46.8455 41.2209L48.3911 45.2282Z" fill="url(#paint9_radial_12_77)"/>
<path d="M55.2033 22.172C55.3035 22.2722 55.375 22.4153 55.375 22.5727V30.988H52.0547V25.3206C52.0547 23.7177 53.1853 22.3294 54.6881 22.0146C54.8741 21.9716 55.0745 22.0289 55.2033 22.172Z" fill="url(#paint10_linear_12_77)"/>
<path d="M55.2033 22.172C55.3035 22.2722 55.375 22.4153 55.375 22.5727V30.988H52.0547V25.3206C52.0547 23.7177 53.1853 22.3294 54.6881 22.0146C54.8741 21.9716 55.0745 22.0289 55.2033 22.172Z" fill="url(#paint11_linear_12_77)"/>
<g filter="url(#filter2_f_12_77)">
<path d="M54.7368 22.8303C54.8086 22.9356 54.8461 23.0606 54.8441 23.1881V30.9737H52.5857V25.7427C52.5857 24.26 53.3542 22.9748 54.3775 22.6843C54.5135 22.6442 54.6394 22.6972 54.7368 22.8303Z" fill="url(#paint12_linear_12_77)"/>
<path d="M54.7368 22.8303C54.8086 22.9356 54.8461 23.0606 54.8441 23.1881V30.9737H52.5857V25.7427C52.5857 24.26 53.3542 22.9748 54.3775 22.6843C54.5135 22.6442 54.6394 22.6972 54.7368 22.8303Z" fill="url(#paint13_radial_12_77)"/>
</g>
<path d="M55.6325 27.7535H56.1478C56.6487 27.7535 57.0351 27.3528 57.0351 26.8662V22.773C57.0363 22.6612 57.0617 22.5509 57.1095 22.4497C57.1572 22.3486 57.2263 22.2589 57.3119 22.1869C57.3975 22.1149 57.4976 22.0622 57.6055 22.0324C57.7133 22.0027 57.8263 21.9966 57.9367 22.0145C60.2552 22.4439 62.0299 24.5477 62.0299 26.995V31.6034C62.0299 33.2317 61.383 34.7934 60.2316 35.9448C59.0802 37.0963 57.5185 37.7431 55.8901 37.7431H53.7863C52.8274 37.7431 52.0403 36.9703 52.0403 35.9971V31.3458C52.0403 29.3564 53.6432 27.7535 55.6325 27.7535Z" fill="url(#paint14_linear_12_77)"/>
<path d="M55.6325 27.7535H56.1478C56.6487 27.7535 57.0351 27.3528 57.0351 26.8662V22.773C57.0363 22.6612 57.0617 22.5509 57.1095 22.4497C57.1572 22.3486 57.2263 22.2589 57.3119 22.1869C57.3975 22.1149 57.4976 22.0622 57.6055 22.0324C57.7133 22.0027 57.8263 21.9966 57.9367 22.0145C60.2552 22.4439 62.0299 24.5477 62.0299 26.995V31.6034C62.0299 33.2317 61.383 34.7934 60.2316 35.9448C59.0802 37.0963 57.5185 37.7431 55.8901 37.7431H53.7863C52.8274 37.7431 52.0403 36.9703 52.0403 35.9971V31.3458C52.0403 29.3564 53.6432 27.7535 55.6325 27.7535Z" fill="url(#paint15_linear_12_77)"/>
<path d="M55.6325 27.7535H56.1478C56.6487 27.7535 57.0351 27.3528 57.0351 26.8662V22.773C57.0363 22.6612 57.0617 22.5509 57.1095 22.4497C57.1572 22.3486 57.2263 22.2589 57.3119 22.1869C57.3975 22.1149 57.4976 22.0622 57.6055 22.0324C57.7133 22.0027 57.8263 21.9966 57.9367 22.0145C60.2552 22.4439 62.0299 24.5477 62.0299 26.995V31.6034C62.0299 33.2317 61.383 34.7934 60.2316 35.9448C59.0802 37.0963 57.5185 37.7431 55.8901 37.7431H53.7863C52.8274 37.7431 52.0403 36.9703 52.0403 35.9971V31.3458C52.0403 29.3564 53.6432 27.7535 55.6325 27.7535Z" fill="url(#paint16_radial_12_77)"/>
<path d="M38.4299 55.3467L35.4817 58.2949C34.623 59.1536 34.623 60.5561 35.4817 61.4149L35.496 61.4292C36.3547 62.2879 37.7572 62.2879 38.616 61.4292L41.5642 58.4809C42.4229 57.6222 42.4229 56.2197 41.5642 55.361L41.5499 55.3467C40.6768 54.488 39.2886 54.488 38.4299 55.3467Z" fill="url(#paint17_linear_12_77)"/>
<g filter="url(#filter3_f_12_77)">
<path d="M38.8192 56.0479L36.4006 58.4638C35.6979 59.1679 35.3257 60.1669 36.0285 60.8696L36.0413 60.881C36.7455 61.5852 37.753 61.2359 38.4572 60.5318L40.873 58.1145C41.5771 57.4104 41.7202 56.6104 41.0161 55.9062L41.0047 55.8948C40.2891 55.1907 39.522 55.3424 38.8192 56.0465" fill="#CB4E6B"/>
<path d="M38.8192 56.0479L36.4006 58.4638C35.6979 59.1679 35.3257 60.1669 36.0285 60.8696L36.0413 60.881C36.7455 61.5852 37.753 61.2359 38.4572 60.5318L40.873 58.1145C41.5771 57.4104 41.7202 56.6104 41.0161 55.9062L41.0047 55.8948C40.2891 55.1907 39.522 55.3424 38.8192 56.0465" fill="url(#paint18_linear_12_77)"/>
</g>
<path d="M45.5574 55.3467L48.5056 58.2949C49.3643 59.1536 49.3643 60.5561 48.5056 61.4149L48.4913 61.4292C47.6326 62.2879 46.23 62.2879 45.3713 61.4292L42.4231 58.4809C41.5644 57.6222 41.5644 56.2197 42.4231 55.361L42.4374 55.3467C43.2961 54.488 44.6987 54.488 45.5574 55.3467Z" fill="url(#paint19_linear_12_77)"/>
<g filter="url(#filter4_f_12_77)">
<path d="M55.7932 28.4634C56.4229 28.4634 57.5821 28.0341 57.5821 27.2255V23.6218C57.5831 23.5232 57.6054 23.426 57.6474 23.3368C57.6895 23.2476 57.7503 23.1686 57.8257 23.1051C57.9012 23.0416 57.9894 22.9952 58.0845 22.969C58.1795 22.9428 58.2791 22.9375 58.3764 22.9534C60.4187 23.3327 61.2173 25.186 61.2173 27.34V31.3959C61.2173 34.3828 59.0047 36.8015 56.0193 36.8015H54.1673C53.3229 36.8015 52.8535 36.1217 52.8535 35.2644V31.1698C52.8664 29.418 54.0543 28.4634 55.7932 28.4634Z" fill="url(#paint20_linear_12_77)"/>
</g>
<path d="M39.8325 38.0867C39.4317 38.0867 39.1169 37.7718 39.1169 37.3711V25.5639C39.0966 25.01 38.8623 24.4855 38.4633 24.1008C38.0643 23.7161 37.5316 23.5011 36.9773 23.5011C36.423 23.5011 35.8903 23.7161 35.4913 24.1008C35.0922 24.4855 34.8579 25.01 34.8377 25.5639L34.852 25.5782C34.852 25.9789 34.5371 26.2938 34.1364 26.2938C33.7357 26.2938 33.4208 25.9789 33.4208 25.5782L33.4065 25.5639C33.4065 23.6032 35.0094 22.0002 36.9844 22.0002C37.9296 22.0002 38.836 22.3757 39.5043 23.044C40.1726 23.7123 40.5481 24.6187 40.5481 25.5639V37.3568C40.5481 37.7575 40.2189 38.0867 39.8325 38.0867Z" fill="url(#paint21_linear_12_77)"/>
<path d="M44.1401 38.0867C44.5409 38.0867 44.8557 37.7718 44.8557 37.3711V25.5639C44.8557 24.3903 45.8146 23.4314 46.9882 23.4314C48.1618 23.4314 49.1206 24.3903 49.1206 25.5639L49.135 25.5782C49.135 25.9789 49.4498 26.2938 49.8505 26.2938C50.2513 26.2938 50.5661 25.9789 50.5661 25.5782L50.5518 25.5639C50.5518 23.6032 48.9489 22.0002 46.9882 22.0002C45.0275 22.0002 43.4246 23.6032 43.4246 25.5639V37.3568C43.4246 37.7575 43.7394 38.0867 44.1401 38.0867Z" fill="url(#paint22_linear_12_77)"/>
<path d="M30.4983 45.0994C30.7802 46.1141 32.1699 48.0834 35.4616 47.7614" stroke="url(#paint23_linear_12_77)" stroke-width="1.1" stroke-linecap="round"/>
<path d="M31.8838 55.8332C33.1146 56.191 35.529 56.3256 37.597 54.0214" stroke="url(#paint24_linear_12_77)" stroke-width="1.1" stroke-linecap="round"/>
<path d="M29.179 52.055C31.1683 53.5978 33.6728 53.8669 36.1774 52.6132" stroke="url(#paint25_linear_12_77)" stroke-width="1.1" stroke-linecap="round"/>
<path d="M28.2615 47.136C28.9098 49.081 31.7049 51.6971 35.6406 50.1987" stroke="url(#paint26_linear_12_77)" stroke-width="1.1" stroke-linecap="round"/>
<path d="M53.4169 45.0994C53.1336 46.1141 51.7453 48.0834 48.4536 47.7614" stroke="url(#paint27_linear_12_77)" stroke-width="1.1" stroke-linecap="round"/>
<path d="M52.0316 55.8332C50.8008 56.191 48.3864 56.3256 46.3184 54.0214" stroke="url(#paint28_linear_12_77)" stroke-width="1.1" stroke-linecap="round"/>
<path d="M54.7365 52.055C52.7472 53.5978 50.2426 53.8669 47.738 52.6132" stroke="url(#paint29_linear_12_77)" stroke-width="1.1" stroke-linecap="round"/>
<g filter="url(#filter5_f_12_77)">
<path d="M45.2865 56.0479L47.7052 58.4638C48.4079 59.1679 48.7785 60.1669 48.0758 60.8696L48.0644 60.881C47.3602 61.5852 46.3527 61.2359 45.6486 60.5318L43.2313 58.1145C42.5272 57.4104 42.384 56.6104 43.0882 55.9062L43.1011 55.8948C43.8167 55.1907 44.5823 55.3424 45.2865 56.0465" fill="#CB4E6B"/>
<path d="M45.2865 56.0479L47.7052 58.4638C48.4079 59.1679 48.7785 60.1669 48.0758 60.8696L48.0644 60.881C47.3602 61.5852 46.3527 61.2359 45.6486 60.5318L43.2313 58.1145C42.5272 57.4104 42.384 56.6104 43.0882 55.9062L43.1011 55.8948C43.8167 55.1907 44.5823 55.3424 45.2865 56.0465" fill="#E2566B"/>
</g>
<g filter="url(#filter6_f_12_77)">
<path d="M34.2095 25.6225C34.2839 24.6393 34.8807 22.6714 37.0718 22.6714C38.9681 22.6714 39.8898 24.4604 39.8898 25.6225V32.2417" stroke="url(#paint30_linear_12_77)" stroke-width="0.5" stroke-linecap="round"/>
</g>
<g filter="url(#filter7_f_12_77)">
<path d="M49.8908 25.6225C49.8149 24.6393 49.2181 22.6714 47.0284 22.6714C45.1321 22.6714 44.209 24.4604 44.209 25.6225V32.2417" stroke="url(#paint31_linear_12_77)" stroke-width="0.5" stroke-linecap="round"/>
</g>
<path d="M55.654 47.136C55.0057 49.081 52.2106 51.6971 48.2749 50.1987" stroke="url(#paint32_linear_12_77)" stroke-width="1.1" stroke-linecap="round"/>
<path d="M46.7451 34.8808L44.4695 32.1329C43.8541 31.403 42.9525 30.9737 41.9936 30.9737C41.0347 30.9737 40.133 31.403 39.5176 32.1329L37.4281 34.6661C35.8832 36.4114 34.8147 38.5257 34.3258 40.8047C33.8369 43.0836 33.9442 45.4502 34.6373 47.6755L38.2582 59.2681C38.4855 60.0197 38.9329 60.686 39.5426 61.1809C40.1523 61.6758 40.8964 61.9766 41.6787 62.0445C43.5106 62.1876 45.1708 61.057 45.7146 59.3253L49.3498 47.6612C50.7524 43.1959 49.7219 38.3729 46.7451 34.8808Z" fill="url(#paint33_radial_12_77)"/>
<path d="M46.7451 34.8808L44.4695 32.1329C43.8541 31.403 42.9525 30.9737 41.9936 30.9737C41.0347 30.9737 40.133 31.403 39.5176 32.1329L37.4281 34.6661C35.8832 36.4114 34.8147 38.5257 34.3258 40.8047C33.8369 43.0836 33.9442 45.4502 34.6373 47.6755L38.2582 59.2681C38.4855 60.0197 38.9329 60.686 39.5426 61.1809C40.1523 61.6758 40.8964 61.9766 41.6787 62.0445C43.5106 62.1876 45.1708 61.057 45.7146 59.3253L49.3498 47.6612C50.7524 43.1959 49.7219 38.3729 46.7451 34.8808Z" fill="url(#paint34_radial_12_77)"/>
<path d="M46.7451 34.8808L44.4695 32.1329C43.8541 31.403 42.9525 30.9737 41.9936 30.9737C41.0347 30.9737 40.133 31.403 39.5176 32.1329L37.4281 34.6661C35.8832 36.4114 34.8147 38.5257 34.3258 40.8047C33.8369 43.0836 33.9442 45.4502 34.6373 47.6755L38.2582 59.2681C38.4855 60.0197 38.9329 60.686 39.5426 61.1809C40.1523 61.6758 40.8964 61.9766 41.6787 62.0445C43.5106 62.1876 45.1708 61.057 45.7146 59.3253L49.3498 47.6612C50.7524 43.1959 49.7219 38.3729 46.7451 34.8808Z" fill="url(#paint35_radial_12_77)"/>
<path d="M46.7451 34.8808L44.4695 32.1329C43.8541 31.403 42.9525 30.9737 41.9936 30.9737C41.0347 30.9737 40.133 31.403 39.5176 32.1329L37.4281 34.6661C35.8832 36.4114 34.8147 38.5257 34.3258 40.8047C33.8369 43.0836 33.9442 45.4502 34.6373 47.6755L38.2582 59.2681C38.4855 60.0197 38.9329 60.686 39.5426 61.1809C40.1523 61.6758 40.8964 61.9766 41.6787 62.0445C43.5106 62.1876 45.1708 61.057 45.7146 59.3253L49.3498 47.6612C50.7524 43.1959 49.7219 38.3729 46.7451 34.8808Z" fill="url(#paint36_radial_12_77)"/>
<path d="M41.9933 50.2373C37.7999 50.2373 34.3508 46.9885 34.0503 42.8668C33.9644 44.4554 34.1504 46.0869 34.637 47.6755L38.2579 59.268C38.4853 60.0197 38.9327 60.686 39.5424 61.1809C40.1521 61.6758 40.8961 61.9766 41.6784 62.0445C43.5103 62.1876 45.1705 61.057 45.7143 59.3253L49.3495 47.6612C49.8361 46.0869 50.0365 44.4554 49.9363 42.8668C49.7884 44.8715 48.8871 46.746 47.4136 48.1133C45.94 49.4807 44.0035 50.2395 41.9933 50.2373Z" fill="url(#paint37_radial_12_77)"/>
<path d="M41.9933 50.2373C37.7999 50.2373 34.3508 46.9885 34.0503 42.8668C33.9644 44.4554 34.1504 46.0869 34.637 47.6755L38.2579 59.268C38.4853 60.0197 38.9327 60.686 39.5424 61.1809C40.1521 61.6758 40.8961 61.9766 41.6784 62.0445C43.5103 62.1876 45.1705 61.057 45.7143 59.3253L49.3495 47.6612C49.8361 46.0869 50.0365 44.4554 49.9363 42.8668C49.7884 44.8715 48.8871 46.746 47.4136 48.1133C45.94 49.4807 44.0035 50.2395 41.9933 50.2373Z" fill="url(#paint38_radial_12_77)"/>
<path d="M41.9937 55.5327C39.7897 55.5327 37.8146 54.6454 36.3691 53.1999L38.2583 59.2681C38.4856 60.0197 38.933 60.686 39.5427 61.1809C40.1524 61.6758 40.8965 61.9766 41.6788 62.0446C43.5107 62.1877 45.1709 61.057 45.7147 59.3253L47.6325 53.1999C46.1356 54.693 44.1079 55.5319 41.9937 55.5327Z" fill="url(#paint39_linear_12_77)"/>
<path d="M41.9937 55.5327C39.7897 55.5327 37.8146 54.6454 36.3691 53.1999L38.2583 59.2681C38.4856 60.0197 38.933 60.686 39.5427 61.1809C40.1524 61.6758 40.8965 61.9766 41.6788 62.0446C43.5107 62.1877 45.1709 61.057 45.7147 59.3253L47.6325 53.1999C46.1356 54.693 44.1079 55.5319 41.9937 55.5327Z" fill="url(#paint40_radial_12_77)"/>
<path d="M41.9937 55.5327C39.7897 55.5327 37.8146 54.6454 36.3691 53.1999L38.2583 59.2681C38.4856 60.0197 38.933 60.686 39.5427 61.1809C40.1524 61.6758 40.8965 61.9766 41.6788 62.0446C43.5107 62.1877 45.1709 61.057 45.7147 59.3253L47.6325 53.1999C46.1356 54.693 44.1079 55.5319 41.9937 55.5327Z" fill="url(#paint41_linear_12_77)"/>
<path d="M41.9937 55.5327C39.7897 55.5327 37.8146 54.6454 36.3691 53.1999L38.2583 59.2681C38.4856 60.0197 38.933 60.686 39.5427 61.1809C40.1524 61.6758 40.8965 61.9766 41.6788 62.0446C43.5107 62.1877 45.1709 61.057 45.7147 59.3253L47.6325 53.1999C46.1356 54.693 44.1079 55.5319 41.9937 55.5327Z" fill="url(#paint42_linear_12_77)"/>
<path d="M44.455 38.287C44.7397 38.287 45.0127 38.1739 45.214 37.9726C45.4153 37.7713 45.5284 37.4983 45.5284 37.2136C45.5284 36.9289 45.4153 36.6559 45.214 36.4546C45.0127 36.2533 44.7397 36.1402 44.455 36.1402C44.1703 36.1402 43.8973 36.2533 43.696 36.4546C43.4947 36.6559 43.3816 36.9289 43.3816 37.2136C43.3816 37.4983 43.4947 37.7713 43.696 37.9726C43.8973 38.1739 44.1703 38.287 44.455 38.287Z" fill="url(#paint43_radial_12_77)"/>
<path d="M39.5319 38.287C39.8166 38.287 40.0896 38.1739 40.2909 37.9726C40.4922 37.7713 40.6053 37.4983 40.6053 37.2136C40.6053 36.9289 40.4922 36.6559 40.2909 36.4546C40.0896 36.2533 39.8166 36.1402 39.5319 36.1402C39.2472 36.1402 38.9742 36.2533 38.7729 36.4546C38.5716 36.6559 38.4585 36.9289 38.4585 37.2136C38.4585 37.4983 38.5716 37.7713 38.7729 37.9726C38.9742 38.1739 39.2472 38.287 39.5319 38.287Z" fill="url(#paint44_radial_12_77)"/>
<g filter="url(#filter8_f_12_77)">
<path d="M30.6313 45.0336C30.9891 45.8079 32.0182 47.4924 34.1649 47.6713" stroke="url(#paint45_linear_12_77)" stroke-width="0.5" stroke-linecap="round"/>
</g>
<g filter="url(#filter9_f_12_77)">
<path d="M28.4402 47.1804C28.8881 48.477 30.9891 51.2048 35.1037 50.4892" stroke="url(#paint46_linear_12_77)" stroke-width="0.5" stroke-linecap="round"/>
</g>
<g filter="url(#filter10_f_12_77)">
<path d="M29.4692 51.9662C30.6314 53.2843 33.0915 53.7981 35.8652 52.905" stroke="url(#paint47_linear_12_77)" stroke-width="0.25" stroke-linecap="round"/>
</g>
<g filter="url(#filter11_f_12_77)">
<path d="M31.9895 55.723C33.2704 56.3041 35.1939 56.2139 36.4906 54.8729" stroke="url(#paint48_linear_12_77)" stroke-width="0.25" stroke-linecap="round"/>
</g>
<g filter="url(#filter12_f_12_77)">
<path d="M53.423 45.0336C53.0652 45.8079 52.0376 47.4924 49.8909 47.6713" stroke="url(#paint49_linear_12_77)" stroke-width="0.5" stroke-linecap="round"/>
</g>
<g filter="url(#filter13_f_12_77)">
<path d="M55.6154 47.1804C55.1675 48.477 53.0651 51.2048 48.9504 50.4892" stroke="url(#paint50_linear_12_77)" stroke-width="0.5" stroke-linecap="round"/>
</g>
<g filter="url(#filter14_f_12_77)">
<path d="M54.5866 51.9662C53.4231 53.2843 50.9643 53.7981 48.1907 52.905" stroke="url(#paint51_linear_12_77)" stroke-width="0.25" stroke-linecap="round"/>
</g>
<g filter="url(#filter15_f_12_77)">
<path d="M52.0662 55.723C50.7853 56.3041 48.8604 56.2139 47.5652 54.8729" stroke="url(#paint52_linear_12_77)" stroke-width="0.25" stroke-linecap="round"/>
</g>
<defs>
<filter id="filter0_f_12_77" x="28.9729" y="22.4212" width="2.75854" height="8.80243" filterUnits="userSpaceOnUse" color-interpolation-filters="sRGB">
<feFlood flood-opacity="0" result="BackgroundImageFix"/>
<feBlend mode="normal" in="SourceGraphic" in2="BackgroundImageFix" result="shape"/>
<feGaussianBlur stdDeviation="0.125" result="effect1_foregroundBlur_12_77"/>
</filter>
<filter id="filter1_f_12_77" x="22.5544" y="22.6945" width="8.86377" height="14.357" filterUnits="userSpaceOnUse" color-interpolation-filters="sRGB">
<feFlood flood-opacity="0" result="BackgroundImageFix"/>
<feBlend mode="normal" in="SourceGraphic" in2="BackgroundImageFix" result="shape"/>
<feGaussianBlur stdDeviation="0.125" result="effect1_foregroundBlur_12_77"/>
</filter>
<filter id="filter2_f_12_77" x="52.3357" y="22.4212" width="2.75854" height="8.80243" filterUnits="userSpaceOnUse" color-interpolation-filters="sRGB">
<feFlood flood-opacity="0" result="BackgroundImageFix"/>
<feBlend mode="normal" in="SourceGraphic" in2="BackgroundImageFix" result="shape"/>
<feGaussianBlur stdDeviation="0.125" result="effect1_foregroundBlur_12_77"/>
</filter>
<filter id="filter3_f_12_77" x="35.1521" y="54.9365" width="6.82593" height="6.82928" filterUnits="userSpaceOnUse" color-interpolation-filters="sRGB">
<feFlood flood-opacity="0" result="BackgroundImageFix"/>
<feBlend mode="normal" in="SourceGraphic" in2="BackgroundImageFix" result="shape"/>
<feGaussianBlur stdDeviation="0.25" result="effect1_foregroundBlur_12_77"/>
</filter>
<filter id="filter4_f_12_77" x="52.6035" y="22.6945" width="8.86377" height="14.357" filterUnits="userSpaceOnUse" color-interpolation-filters="sRGB">
<feFlood flood-opacity="0" result="BackgroundImageFix"/>
<feBlend mode="normal" in="SourceGraphic" in2="BackgroundImageFix" result="shape"/>
<feGaussianBlur stdDeviation="0.125" result="effect1_foregroundBlur_12_77"/>
</filter>
<filter id="filter5_f_12_77" x="42.1262" y="54.9365" width="6.82642" height="6.82928" filterUnits="userSpaceOnUse" color-interpolation-filters="sRGB">
<feFlood flood-opacity="0" result="BackgroundImageFix"/>
<feBlend mode="normal" in="SourceGraphic" in2="BackgroundImageFix" result="shape"/>
<feGaussianBlur stdDeviation="0.25" result="effect1_foregroundBlur_12_77"/>
</filter>
<filter id="filter6_f_12_77" x="33.7095" y="22.1714" width="6.68042" height="10.5703" filterUnits="userSpaceOnUse" color-interpolation-filters="sRGB">
<feFlood flood-opacity="0" result="BackgroundImageFix"/>
<feBlend mode="normal" in="SourceGraphic" in2="BackgroundImageFix" result="shape"/>
<feGaussianBlur stdDeviation="0.125" result="effect1_foregroundBlur_12_77"/>
</filter>
<filter id="filter7_f_12_77" x="43.709" y="22.1714" width="6.68188" height="10.5703" filterUnits="userSpaceOnUse" color-interpolation-filters="sRGB">
<feFlood flood-opacity="0" result="BackgroundImageFix"/>
<feBlend mode="normal" in="SourceGraphic" in2="BackgroundImageFix" result="shape"/>
<feGaussianBlur stdDeviation="0.125" result="effect1_foregroundBlur_12_77"/>
</filter>
<filter id="filter8_f_12_77" x="30.1313" y="44.5336" width="4.53369" height="3.63776" filterUnits="userSpaceOnUse" color-interpolation-filters="sRGB">
<feFlood flood-opacity="0" result="BackgroundImageFix"/>
<feBlend mode="normal" in="SourceGraphic" in2="BackgroundImageFix" result="shape"/>
<feGaussianBlur stdDeviation="0.125" result="effect1_foregroundBlur_12_77"/>
</filter>
<filter id="filter9_f_12_77" x="27.9402" y="46.6803" width="7.66357" height="4.427" filterUnits="userSpaceOnUse" color-interpolation-filters="sRGB">
<feFlood flood-opacity="0" result="BackgroundImageFix"/>
<feBlend mode="normal" in="SourceGraphic" in2="BackgroundImageFix" result="shape"/>
<feGaussianBlur stdDeviation="0.125" result="effect1_foregroundBlur_12_77"/>
</filter>
<filter id="filter10_f_12_77" x="29.0942" y="51.5912" width="7.146" height="2.13538" filterUnits="userSpaceOnUse" color-interpolation-filters="sRGB">
<feFlood flood-opacity="0" result="BackgroundImageFix"/>
<feBlend mode="normal" in="SourceGraphic" in2="BackgroundImageFix" result="shape"/>
<feGaussianBlur stdDeviation="0.125" result="effect1_foregroundBlur_12_77"/>
</filter>
<filter id="filter11_f_12_77" x="31.6145" y="54.4979" width="5.25098" height="1.93994" filterUnits="userSpaceOnUse" color-interpolation-filters="sRGB">
<feFlood flood-opacity="0" result="BackgroundImageFix"/>
<feBlend mode="normal" in="SourceGraphic" in2="BackgroundImageFix" result="shape"/>
<feGaussianBlur stdDeviation="0.125" result="effect1_foregroundBlur_12_77"/>
</filter>
<filter id="filter12_f_12_77" x="49.3909" y="44.5336" width="4.53223" height="3.63776" filterUnits="userSpaceOnUse" color-interpolation-filters="sRGB">
<feFlood flood-opacity="0" result="BackgroundImageFix"/>
<feBlend mode="normal" in="SourceGraphic" in2="BackgroundImageFix" result="shape"/>
<feGaussianBlur stdDeviation="0.125" result="effect1_foregroundBlur_12_77"/>
</filter>
<filter id="filter13_f_12_77" x="48.4504" y="46.6803" width="7.66504" height="4.427" filterUnits="userSpaceOnUse" color-interpolation-filters="sRGB">
<feFlood flood-opacity="0" result="BackgroundImageFix"/>
<feBlend mode="normal" in="SourceGraphic" in2="BackgroundImageFix" result="shape"/>
<feGaussianBlur stdDeviation="0.125" result="effect1_foregroundBlur_12_77"/>
</filter>
<filter id="filter14_f_12_77" x="47.8157" y="51.5912" width="7.146" height="2.13538" filterUnits="userSpaceOnUse" color-interpolation-filters="sRGB">
<feFlood flood-opacity="0" result="BackgroundImageFix"/>
<feBlend mode="normal" in="SourceGraphic" in2="BackgroundImageFix" result="shape"/>
<feGaussianBlur stdDeviation="0.125" result="effect1_foregroundBlur_12_77"/>
</filter>
<filter id="filter15_f_12_77" x="47.1902" y="54.4979" width="5.25098" height="1.93994" filterUnits="userSpaceOnUse" color-interpolation-filters="sRGB">
<feFlood flood-opacity="0" result="BackgroundImageFix"/>
<feBlend mode="normal" in="SourceGraphic" in2="BackgroundImageFix" result="shape"/>
<feGaussianBlur stdDeviation="0.125" result="effect1_foregroundBlur_12_77"/>
</filter>
<radialGradient id="paint0_radial_12_77" cx="0" cy="0" r="1" gradientUnits="userSpaceOnUse" gradientTransform="translate(33.0028 38.9067) rotate(47.9108) scale(7.4731 4.97456)">
<stop offset="0.234" stop-color="#CD5858"/>
<stop offset="0.413" stop-color="#D56166"/>
<stop offset="0.642" stop-color="#C9445F"/>
<stop offset="0.871" stop-color="#BE3266"/>
</radialGradient>
<radialGradient id="paint1_radial_12_77" cx="0" cy="0" r="1" gradientUnits="userSpaceOnUse" gradientTransform="translate(34.7918 40.6957) rotate(93.4682) scale(5.91443 3.4573)">
<stop offset="0.243" stop-color="#BE363D"/>
<stop offset="0.849" stop-color="#BB2E45" stop-opacity="0"/>
</radialGradient>
<radialGradient id="paint2_radial_12_77" cx="0" cy="0" r="1" gradientUnits="userSpaceOnUse" gradientTransform="translate(29.7827 36.6698) rotate(69.9048) scale(1.95256 6.55885)">
<stop stop-color="#CB363F"/>
<stop offset="1" stop-color="#BB373C" stop-opacity="0"/>
</radialGradient>
<linearGradient id="paint3_linear_12_77" x1="31.9751" y1="24.7738" x2="28.6548" y2="24.7738" gradientUnits="userSpaceOnUse">
<stop stop-color="#EF7D62"/>
<stop offset="0.64" stop-color="#EC7649"/>
<stop offset="0.93" stop-color="#E2503A"/>
</linearGradient>
<linearGradient id="paint4_linear_12_77" x1="30.3107" y1="29.335" x2="30.2835" y2="22.6714" gradientUnits="userSpaceOnUse">
<stop stop-color="#E05553"/>
<stop offset="1" stop-color="#E86743"/>
</linearGradient>
<linearGradient id="paint5_linear_12_77" x1="22" y1="28.5306" x2="31.9896" y2="28.5306" gradientUnits="userSpaceOnUse">
<stop stop-color="#D45158"/>
<stop offset="0.501" stop-color="#ED7562"/>
<stop offset="1" stop-color="#EA727C"/>
</linearGradient>
<linearGradient id="paint6_linear_12_77" x1="31.1237" y1="23.5215" x2="24.4158" y2="37.2064" gradientUnits="userSpaceOnUse">
<stop offset="0.528" stop-color="#CB4471" stop-opacity="0"/>
<stop offset="0.881" stop-color="#C1217F"/>
</linearGradient>
<linearGradient id="paint7_linear_12_77" x1="26.9949" y1="22.9448" x2="26.9949" y2="36.8015" gradientUnits="userSpaceOnUse">
<stop stop-color="#E36446"/>
<stop offset="0.61" stop-color="#D9526B"/>
<stop offset="1" stop-color="#CD3E81"/>
</linearGradient>
<radialGradient id="paint8_radial_12_77" cx="0" cy="0" r="1" gradientUnits="userSpaceOnUse" gradientTransform="translate(51.5898 38.8165) rotate(119.949) scale(7.39979 4.92576)">
<stop stop-color="#D56665"/>
<stop offset="0.179" stop-color="#CF4642"/>
<stop offset="0.501" stop-color="#DB5E69"/>
<stop offset="0.841" stop-color="#CA376A"/>
</radialGradient>
<radialGradient id="paint9_radial_12_77" cx="0" cy="0" r="1" gradientUnits="userSpaceOnUse" gradientTransform="translate(48.2981 40.9633) rotate(84.8978) scale(5.02904 3.34765)">
<stop stop-color="#D5434D"/>
<stop offset="1" stop-color="#D7434F" stop-opacity="0"/>
</radialGradient>
<linearGradient id="paint10_linear_12_77" x1="55.375" y1="24.7782" x2="52.0547" y2="24.7782" gradientUnits="userSpaceOnUse">
<stop stop-color="#EF7D62"/>
<stop offset="0.64" stop-color="#EC7649"/>
<stop offset="0.93" stop-color="#E2503A"/>
</linearGradient>
<linearGradient id="paint11_linear_12_77" x1="53.1281" y1="25.2204" x2="54.1127" y2="30.2295" gradientUnits="userSpaceOnUse">
<stop stop-color="#C74A44" stop-opacity="0"/>
<stop offset="1" stop-color="#C64943"/>
</linearGradient>
<linearGradient id="paint12_linear_12_77" x1="53.7564" y1="29.335" x2="53.7836" y2="22.6714" gradientUnits="userSpaceOnUse">
<stop stop-color="#E05553"/>
<stop offset="1" stop-color="#E86743"/>
</linearGradient>
<radialGradient id="paint13_radial_12_77" cx="0" cy="0" r="1" gradientUnits="userSpaceOnUse" gradientTransform="translate(53.4859 29.5582) rotate(70.7693) scale(2.0368 3.2297)">
<stop stop-color="#C43D45"/>
<stop offset="1" stop-color="#C53E46" stop-opacity="0"/>
</radialGradient>
<linearGradient id="paint14_linear_12_77" x1="52.0403" y1="28.5306" x2="62.0299" y2="28.5306" gradientUnits="userSpaceOnUse">
<stop stop-color="#D45158"/>
<stop offset="0.501" stop-color="#ED7562"/>
<stop offset="1" stop-color="#EA727C"/>
</linearGradient>
<linearGradient id="paint15_linear_12_77" x1="61.164" y1="23.5215" x2="54.4547" y2="37.2064" gradientUnits="userSpaceOnUse">
<stop offset="0.528" stop-color="#CB4471" stop-opacity="0"/>
<stop offset="0.881" stop-color="#C1217F"/>
</linearGradient>
<radialGradient id="paint16_radial_12_77" cx="0" cy="0" r="1" gradientUnits="userSpaceOnUse" gradientTransform="translate(52.9276 28.6866) rotate(121.386) scale(4.16501 0.831103)">
<stop stop-color="#D9888B"/>
<stop offset="1" stop-color="#CC7376" stop-opacity="0"/>
</radialGradient>
<linearGradient id="paint17_linear_12_77" x1="38.5229" y1="55.9907" x2="38.5229" y2="62.0732" gradientUnits="userSpaceOnUse">
<stop stop-color="#C95143"/>
<stop offset="1" stop-color="#C4307D"/>
</linearGradient>
<linearGradient id="paint18_linear_12_77" x1="38.5659" y1="58.3507" x2="37.4296" y2="58.7643" gradientUnits="userSpaceOnUse">
<stop offset="0.34" stop-color="#BB294C"/>
<stop offset="0.818" stop-color="#BB2951" stop-opacity="0"/>
</linearGradient>
<linearGradient id="paint19_linear_12_77" x1="45.4643" y1="54.7026" x2="45.4643" y2="62.0732" gradientUnits="userSpaceOnUse">
<stop offset="0.502" stop-color="#EC7469"/>
<stop offset="1" stop-color="#CC3181"/>
</linearGradient>
<linearGradient id="paint20_linear_12_77" x1="57.0268" y1="22.9448" x2="57.0268" y2="36.8015" gradientUnits="userSpaceOnUse">
<stop stop-color="#E36446"/>
<stop offset="0.61" stop-color="#D9526B"/>
<stop offset="1" stop-color="#CD3E81"/>
</linearGradient>
<linearGradient id="paint21_linear_12_77" x1="36.9773" y1="22.0002" x2="36.9773" y2="38.0795" gradientUnits="userSpaceOnUse">
<stop stop-color="#D9494C"/>
<stop offset="0.328" stop-color="#D94B5B"/>
<stop offset="0.757" stop-color="#D0335F"/>
</linearGradient>
<linearGradient id="paint22_linear_12_77" x1="46.9953" y1="22.0002" x2="46.9953" y2="38.0795" gradientUnits="userSpaceOnUse">
<stop stop-color="#D9494C"/>
<stop offset="0.328" stop-color="#D94B5B"/>
<stop offset="0.757" stop-color="#D0335F"/>
</linearGradient>
<linearGradient id="paint23_linear_12_77" x1="29.8714" y1="46.449" x2="34.7017" y2="46.449" gradientUnits="userSpaceOnUse">
<stop offset="0.13" stop-color="#CF5125"/>
<stop offset="1" stop-color="#BE2962"/>
</linearGradient>
<linearGradient id="paint24_linear_12_77" x1="32.4291" y1="57.2988" x2="36.0256" y2="53.6178" gradientUnits="userSpaceOnUse">
<stop offset="0.229" stop-color="#CB5667"/>
<stop offset="1" stop-color="#BE2962"/>
</linearGradient>
<linearGradient id="paint25_linear_12_77" x1="28.2959" y1="52.7305" x2="35.1055" y2="52.7305" gradientUnits="userSpaceOnUse">
<stop offset="0.229" stop-color="#D45A3F"/>
<stop offset="1" stop-color="#BE2962"/>
</linearGradient>
<linearGradient id="paint26_linear_12_77" x1="27.3312" y1="48.8892" x2="34.5114" y2="48.8892" gradientUnits="userSpaceOnUse">
<stop offset="0.229" stop-color="#D45A3F"/>
<stop offset="1" stop-color="#BE2962"/>
</linearGradient>
<linearGradient id="paint27_linear_12_77" x1="54.0438" y1="46.449" x2="49.2136" y2="46.449" gradientUnits="userSpaceOnUse">
<stop offset="0.13" stop-color="#CF5125"/>
<stop offset="1" stop-color="#BE2962"/>
</linearGradient>
<linearGradient id="paint28_linear_12_77" x1="51.4863" y1="57.2988" x2="47.8898" y2="53.6178" gradientUnits="userSpaceOnUse">
<stop offset="0.229" stop-color="#CB5667"/>
<stop offset="1" stop-color="#BE2962"/>
</linearGradient>
<linearGradient id="paint29_linear_12_77" x1="55.6195" y1="52.7305" x2="48.81" y2="52.7305" gradientUnits="userSpaceOnUse">
<stop offset="0.229" stop-color="#D45A3F"/>
<stop offset="1" stop-color="#BE2962"/>
</linearGradient>
<linearGradient id="paint30_linear_12_77" x1="37.6085" y1="22.9849" x2="37.6085" y2="32.5552" gradientUnits="userSpaceOnUse">
<stop offset="0.051" stop-color="#DE6652"/>
<stop offset="1" stop-color="#DA5672"/>
</linearGradient>
<linearGradient id="paint31_linear_12_77" x1="46.4917" y1="22.9849" x2="46.4917" y2="32.5552" gradientUnits="userSpaceOnUse">
<stop offset="0.051" stop-color="#DE6652"/>
<stop offset="1" stop-color="#DA5672"/>
</linearGradient>
<linearGradient id="paint32_linear_12_77" x1="56.5843" y1="48.8892" x2="49.4041" y2="48.8892" gradientUnits="userSpaceOnUse">
<stop offset="0.229" stop-color="#D45A3F"/>
<stop offset="1" stop-color="#BE2962"/>
</linearGradient>
<radialGradient id="paint33_radial_12_77" cx="0" cy="0" r="1" gradientUnits="userSpaceOnUse" gradientTransform="translate(44.8101 37.3854) rotate(98.4404) scale(14.0163 12.5447)">
<stop stop-color="#ED7067"/>
<stop offset="0.624" stop-color="#DA5369"/>
<stop offset="1" stop-color="#C82F64"/>
</radialGradient>
<radialGradient id="paint34_radial_12_77" cx="0" cy="0" r="1" gradientUnits="userSpaceOnUse" gradientTransform="translate(46.0618 37.2952) rotate(149.284) scale(4.72831 12.1035)">
<stop stop-color="#F37B64"/>
<stop offset="1" stop-color="#E8704E" stop-opacity="0"/>
</radialGradient>
<radialGradient id="paint35_radial_12_77" cx="0" cy="0" r="1" gradientUnits="userSpaceOnUse" gradientTransform="translate(37.8336 35.3277) rotate(119.438) scale(10.3737 4.3719)">
<stop stop-color="#CB553D"/>
<stop offset="1" stop-color="#CE573C" stop-opacity="0"/>
</radialGradient>
<radialGradient id="paint36_radial_12_77" cx="0" cy="0" r="1" gradientUnits="userSpaceOnUse" gradientTransform="translate(34.613 42.6635) rotate(97.0616) scale(4.77701 2.45025)">
<stop stop-color="#CE6F73"/>
<stop offset="1" stop-color="#C76C70" stop-opacity="0"/>
</radialGradient>
<radialGradient id="paint37_radial_12_77" cx="0" cy="0" r="1" gradientUnits="userSpaceOnUse" gradientTransform="translate(43.5561 48.477) rotate(96.404) scale(8.821 14.4321)">
<stop offset="0.123" stop-color="#EC7348"/>
<stop offset="0.883" stop-color="#CB3874"/>
</radialGradient>
<radialGradient id="paint38_radial_12_77" cx="0" cy="0" r="1" gradientUnits="userSpaceOnUse" gradientTransform="translate(38.1005 47.7614) rotate(88.2643) scale(5.90631 11.6284)">
<stop stop-color="#C2472D"/>
<stop offset="0.796" stop-color="#C3482F" stop-opacity="0"/>
</radialGradient>
<linearGradient id="paint39_linear_12_77" x1="42.0008" y1="53.7552" x2="42.0008" y2="62.0574" gradientUnits="userSpaceOnUse">
<stop stop-color="#C84D32"/>
<stop offset="0.528" stop-color="#D84878"/>
<stop offset="1" stop-color="#C1228F"/>
</linearGradient>
<radialGradient id="paint40_radial_12_77" cx="0" cy="0" r="1" gradientUnits="userSpaceOnUse" gradientTransform="translate(43.5579 54.3806) rotate(99.8193) scale(4.72048 8.02397)">
<stop offset="0.197" stop-color="#EC7558"/>
<stop offset="1" stop-color="#ED7759" stop-opacity="0"/>
</radialGradient>
<linearGradient id="paint41_linear_12_77" x1="47.6325" y1="56.9753" x2="44.9433" y2="56.3041" gradientUnits="userSpaceOnUse">
<stop offset="0.268" stop-color="#CE575C"/>
<stop offset="0.738" stop-color="#E04E76" stop-opacity="0"/>
</linearGradient>
<linearGradient id="paint42_linear_12_77" x1="36.3691" y1="56.7063" x2="39.1742" y2="56.0808" gradientUnits="userSpaceOnUse">
<stop offset="0.268" stop-color="#D1776C"/>
<stop offset="0.641" stop-color="#D1776C" stop-opacity="0"/>
</linearGradient>
<radialGradient id="paint43_radial_12_77" cx="0" cy="0" r="1" gradientUnits="userSpaceOnUse" gradientTransform="translate(44.9474 36.8481) rotate(137.421) scale(2.12583)">
<stop offset="0.006" stop-color="#4E4C4F"/>
<stop offset="0.392" stop-color="#2F2A36"/>
<stop offset="0.764" stop-color="#301A31"/>
</radialGradient>
<radialGradient id="paint44_radial_12_77" cx="0" cy="0" r="1" gradientUnits="userSpaceOnUse" gradientTransform="translate(40.0235 36.8462) rotate(137.421) scale(2.12583)">
<stop offset="0.006" stop-color="#4E4C4F"/>
<stop offset="0.392" stop-color="#2F2A36"/>
<stop offset="0.764" stop-color="#301A31"/>
</radialGradient>
<linearGradient id="paint45_linear_12_77" x1="30.5426" y1="45.2125" x2="32.22" y2="47.8058" gradientUnits="userSpaceOnUse">
<stop stop-color="#D25C3F"/>
<stop offset="1" stop-color="#D35E41" stop-opacity="0"/>
</linearGradient>
<linearGradient id="paint46_linear_12_77" x1="28.2913" y1="47.4136" x2="34.1205" y2="51.3293" gradientUnits="userSpaceOnUse">
<stop offset="0.379" stop-color="#D8664A"/>
<stop offset="1" stop-color="#CD5062" stop-opacity="0"/>
</linearGradient>
<linearGradient id="paint47_linear_12_77" x1="29.9244" y1="50.5708" x2="35.755" y2="54.4865" gradientUnits="userSpaceOnUse">
<stop offset="0.379" stop-color="#D8664A"/>
<stop offset="1" stop-color="#CD5062" stop-opacity="0"/>
</linearGradient>
<linearGradient id="paint48_linear_12_77" x1="31.9895" y1="56.0622" x2="38.862" y2="57.0383" gradientUnits="userSpaceOnUse">
<stop stop-color="#CD4B69"/>
<stop offset="1" stop-color="#CE4C6D" stop-opacity="0"/>
</linearGradient>
<linearGradient id="paint49_linear_12_77" x1="53.5132" y1="45.2125" x2="51.8358" y2="47.8058" gradientUnits="userSpaceOnUse">
<stop stop-color="#D25C3F"/>
<stop offset="1" stop-color="#D35E41" stop-opacity="0"/>
</linearGradient>
<linearGradient id="paint50_linear_12_77" x1="55.7643" y1="47.4136" x2="49.9351" y2="51.3293" gradientUnits="userSpaceOnUse">
<stop offset="0.379" stop-color="#D8664A"/>
<stop offset="1" stop-color="#CD5062" stop-opacity="0"/>
</linearGradient>
<linearGradient id="paint51_linear_12_77" x1="54.1301" y1="50.5708" x2="48.3009" y2="54.4865" gradientUnits="userSpaceOnUse">
<stop offset="0.379" stop-color="#D8664A"/>
<stop offset="1" stop-color="#CD5062" stop-opacity="0"/>
</linearGradient>
<linearGradient id="paint52_linear_12_77" x1="52.0662" y1="56.0622" x2="45.1937" y2="57.0383" gradientUnits="userSpaceOnUse">
<stop stop-color="#CD4B69"/>
<stop offset="1" stop-color="#CE4C6D" stop-opacity="0"/>
</linearGradient>
</defs>
</svg>
