<svg width="70" height="70" viewBox="0 0 70 70" fill="none" xmlns="http://www.w3.org/2000/svg">
<rect width="70" height="70" rx="4" fill="#1A202C"/>
<path d="M32.631 20.8582V13.5362C32.631 12.3334 32.1527 11.1798 31.3012 10.3293C30.4498 9.47878 29.295 9.00096 28.0908 9.00096C25.5745 9.00096 23.5324 11.0409 23.5324 13.5362L23.5506 13.5544C23.5506 14.0644 23.9517 14.4651 24.4623 14.4651C24.9728 14.4651 25.374 14.0644 25.374 13.5544L25.3557 13.5362C25.3816 12.8313 25.6801 12.1638 26.1884 11.6742C26.6968 11.1846 27.3755 10.911 28.0817 10.911C28.7879 10.911 29.4665 11.1846 29.9749 11.6742C30.4833 12.1638 30.7818 12.8313 30.8077 13.5362V22.5157L28.6561 25.1203C26.8686 27.1356 25.5795 29.5418 24.8926 32.1454L23.7147 31.6955C22.5295 31.2402 21.7272 30.0927 21.7272 28.8177V20.4211H21.6999H21.709V13.2266C21.709 11.1866 20.2685 9.41988 18.354 9.01917C18.2494 8.99441 18.1406 8.99362 18.0358 9.01687C17.9309 9.04012 17.8327 9.0868 17.7485 9.1534C17.6642 9.22001 17.5962 9.3048 17.5495 9.40143C17.5028 9.49806 17.4786 9.604 17.4787 9.7113V16.3339C17.3695 16.3264 17.26 16.3227 17.1505 16.323H16.4941C15.8559 16.323 15.3636 15.813 15.3636 15.1937V9.98451C15.362 9.84215 15.3297 9.7018 15.2689 9.57307C15.208 9.44433 15.12 9.33024 15.011 9.23858C14.9019 9.14693 14.7743 9.07988 14.6369 9.04201C14.4995 9.00414 14.3556 8.99635 14.2149 9.01917C11.261 9.56559 9 12.243 9 15.3576V21.2225C8.99993 23.1975 9.74856 25.0992 11.0953 26.5452C12.442 27.9911 14.2869 28.874 16.2589 29.0163C16.3046 30.7086 16.8497 32.3497 17.8258 33.7337C18.8019 35.1177 20.1655 36.1828 21.7454 36.7954L24.3656 37.7954C24.4375 38.7839 24.5943 39.7643 24.8343 40.726L23.2041 40.2925C22.974 40.2308 22.7624 40.1139 22.5876 39.952C22.4129 39.7902 22.2803 39.5882 22.2013 39.3636L21.6543 37.7608C21.5745 37.5313 21.4067 37.3429 21.1879 37.237C20.969 37.1311 20.717 37.1164 20.4873 37.1961C20.2576 37.2758 20.069 37.4434 19.963 37.662C19.857 37.8807 19.8423 38.1324 19.9221 38.3618L20.4691 39.9647C20.8155 40.9846 21.6725 41.7678 22.7118 42.0593L25.4469 42.7878L25.6475 43.4253H21.5084C20.4691 43.4253 19.5209 42.9335 18.9374 42.0957L17.9163 40.5111C17.7855 40.3085 17.5796 40.1659 17.3438 40.1147C17.108 40.0635 16.8614 40.1078 16.6582 40.2379C16.4554 40.3685 16.3127 40.5742 16.2614 40.8098C16.2101 41.0454 16.2545 41.2917 16.3847 41.4946L17.424 43.1157C18.354 44.4453 19.8674 45.2467 21.5084 45.2467H26.2164L26.437 45.9534L22.4019 47.0317C21.399 47.3049 20.3414 47.0681 19.5756 46.4124L18.4816 45.4288C18.3039 45.2695 18.0708 45.186 17.8323 45.1962C17.5937 45.2064 17.3686 45.3096 17.2052 45.4835C16.877 45.8478 16.8952 46.4306 17.2599 46.7585L18.3904 47.7784C19.2839 48.5434 20.4144 48.9441 21.5813 48.9441C22.0189 48.9441 22.4383 48.8895 22.8759 48.7802L26.9785 47.6837L27.3122 48.7474L26.2492 49.873C25.7386 50.4013 25.0275 50.7109 24.2799 50.7109H22.6207C22.1101 50.7109 21.709 51.1116 21.709 51.6216C21.709 52.1316 22.1284 52.5505 22.6207 52.5505H24.2982C25.5381 52.5505 26.7415 52.0405 27.5803 51.1298L27.9376 50.751L28.5758 52.7946L26.1763 55.1915C25.0822 56.2844 25.0822 58.0693 26.1763 59.1622L26.1945 59.1804C27.2885 60.2732 29.0754 60.2732 30.1695 59.1804L30.9006 58.45C31.7212 59.306 32.8371 59.8652 34.0715 59.9636C34.8054 60.023 35.5433 59.9188 36.232 59.6586C36.9207 59.3984 37.5429 58.9887 38.0538 58.4591L38.7758 59.1804C39.8699 60.2732 41.6568 60.2732 42.7508 59.1804L42.769 59.1622C43.8631 58.0693 43.8631 56.2844 42.769 55.1915L40.3749 52.8L40.9767 50.8803L41.365 51.2937C42.2038 52.2044 43.4072 52.7144 44.6471 52.7144H46.3246C46.8169 52.7144 47.2546 52.2955 47.2546 51.7855C47.2546 51.2755 46.8534 50.8748 46.3429 50.8748H44.6654C43.9178 50.8748 43.2066 50.5652 42.6961 50.037L41.6021 48.8786L41.6568 48.7074L41.6404 48.7237L41.9139 47.8495L46.0694 48.9605C46.8426 49.1655 47.6539 49.1814 48.4346 49.0071C49.2154 48.8327 49.9426 48.4731 50.5549 47.9588L51.6854 46.9388C52.0501 46.6109 52.0683 46.0281 51.7401 45.6638C51.4119 45.2995 50.8284 45.2813 50.4637 45.6092L49.3697 46.5927C48.6039 47.2484 47.5463 47.4852 46.5434 47.212L42.4536 46.1192L42.6742 45.4106H47.4369C49.0779 45.4106 50.5914 44.6274 51.5213 43.2796L52.5606 41.6586C52.6908 41.4556 52.7352 41.2093 52.6839 40.9737C52.6326 40.7381 52.4899 40.5325 52.2871 40.4018C52.0839 40.2717 51.8373 40.2274 51.6015 40.2786C51.3657 40.3298 51.1598 40.4724 51.029 40.675L50.0079 42.2596C49.4244 43.0975 48.4762 43.5892 47.4369 43.5892H43.2431L43.4364 42.9663L46.2335 42.2232C47.2728 41.9318 48.1298 41.1486 48.4762 40.1286L49.0232 38.5258C49.0628 38.4121 49.0795 38.2919 49.0724 38.1718C49.0654 38.0517 49.0348 37.9342 48.9823 37.826C48.9298 37.7177 48.8565 37.6209 48.7665 37.5409C48.6766 37.461 48.5717 37.3995 48.458 37.3601C48.3443 37.3206 48.2238 37.3039 48.1036 37.3109C47.9834 37.3179 47.8658 37.3485 47.7574 37.401C47.6491 37.4534 47.5521 37.5266 47.4721 37.6165C47.3921 37.7064 47.3305 37.8111 47.291 37.9247L46.744 39.5275C46.5799 39.9829 46.2152 40.3289 45.7412 40.4564L44.0636 40.9027C44.3317 39.8911 44.5063 38.8571 44.5851 37.8136L47.2546 36.7954C48.8345 36.1828 50.1981 35.1177 51.1742 33.7337C52.1503 32.3497 52.6954 30.7086 52.7411 29.0163C54.7131 28.874 56.558 27.9911 57.9047 26.5452C59.2514 25.0992 60.0001 23.1975 60 21.2225V15.3576C60 12.243 57.739 9.56559 54.7851 9.01917C54.6444 8.99635 54.5005 9.00414 54.3631 9.04201C54.2257 9.07988 54.0981 9.14693 53.989 9.23858C53.88 9.33024 53.792 9.44433 53.7312 9.57307C53.6703 9.7018 53.638 9.84215 53.6364 9.98451V15.1937C53.6364 15.813 53.1441 16.323 52.5059 16.323H51.8495C51.7401 16.323 51.6307 16.3266 51.5213 16.3339V9.72952C51.5213 9.52916 51.4301 9.34702 51.3025 9.21953C51.2207 9.13099 51.1168 9.06577 51.0014 9.03057C50.8861 8.99536 50.7634 8.99143 50.646 9.01917C48.7315 9.41988 47.291 11.1866 47.291 13.2266V20.4211H47.2728V28.8177C47.2728 30.0927 46.4705 31.2402 45.2853 31.6955L44.0655 32.16C43.409 29.6678 42.1994 27.3551 40.5263 25.3935L38.1194 22.4902V13.5362C38.1194 12.0427 39.3411 10.8224 40.8363 10.8224C42.3314 10.8224 43.5531 12.0427 43.5531 13.5362L43.5713 13.5544C43.5713 14.0644 43.9725 14.4651 44.483 14.4651C44.9936 14.4651 45.3947 14.0644 45.3947 13.5544L45.3765 13.5362C45.3765 11.0409 43.3343 9.00096 40.8363 9.00096C38.3382 9.00096 36.296 11.0409 36.296 13.5362V20.851C35.7265 20.5676 35.0987 20.4209 34.4625 20.4225C33.8262 20.424 33.1991 20.5721 32.631 20.8582ZM32.631 27.9234C32.6913 28.0938 32.7171 28.2745 32.707 28.455C32.6969 28.6354 32.651 28.8121 32.572 28.9747C32.493 29.1373 32.3826 29.2827 32.2469 29.4023C32.1113 29.522 31.9533 29.6136 31.782 29.6718C31.6107 29.73 31.4295 29.7536 31.249 29.7414C31.0685 29.7292 30.8922 29.6813 30.7303 29.6005C30.5685 29.5197 30.4243 29.4076 30.3061 29.2707C30.1879 29.1339 30.0981 28.9749 30.0418 28.8032C29.9299 28.4615 29.9574 28.0895 30.1183 27.7679C30.2792 27.4463 30.5605 27.201 30.9012 27.0852C31.242 26.9694 31.6147 26.9925 31.9385 27.1494C32.2623 27.3063 32.5111 27.5844 32.631 27.9234ZM36.296 27.9799C36.3466 27.8077 36.4305 27.6471 36.5432 27.5073C36.6559 27.3675 36.795 27.2512 36.9526 27.1651C37.1102 27.0791 37.2833 27.0248 37.4619 27.0056C37.6405 26.9863 37.8212 27.0023 37.9936 27.0528C38.166 27.1033 38.3268 27.1872 38.4667 27.2997C38.6067 27.4122 38.723 27.5512 38.8092 27.7087C38.8954 27.8661 38.9497 28.039 38.969 28.2174C38.9883 28.3958 38.9722 28.5763 38.9217 28.7485C38.8197 29.0963 38.5835 29.3894 38.2651 29.5633C37.9468 29.7371 37.5723 29.7775 37.2241 29.6756C36.8759 29.5737 36.5826 29.3378 36.4085 29.0198C36.2345 28.7017 36.194 28.3277 36.296 27.9799Z" fill="white"/>
</svg>
