<svg width="62" height="62" viewBox="0 0 62 62" fill="none" xmlns="http://www.w3.org/2000/svg">
<path d="M28.725 14.6156V5.82187C28.725 4.37727 28.1511 2.99183 27.1296 1.97035C26.1082 0.948858 24.7227 0.374993 23.2781 0.374993C20.2594 0.374993 17.8094 2.82499 17.8094 5.82187L17.8312 5.84374C17.8312 6.45624 18.3125 6.93749 18.925 6.93749C19.5375 6.93749 20.0187 6.45624 20.0187 5.84374L19.9969 5.82187C20.0278 4.97523 20.386 4.17359 20.9959 3.58558C21.6058 2.99756 22.42 2.669 23.2672 2.669C24.1144 2.669 24.9286 2.99756 25.5385 3.58558C26.1484 4.17359 26.5065 4.97523 26.5375 5.82187V16.6062L23.9562 19.7344C21.8118 22.1547 20.2653 25.0446 19.4412 28.1716L18.0281 27.6312C16.6062 27.0844 15.6437 25.7062 15.6437 24.175V14.0906H15.6109H15.6219V5.44999C15.6219 2.99999 13.8938 0.878118 11.5969 0.396868C11.4715 0.367128 11.341 0.366183 11.2152 0.394103C11.0894 0.422024 10.9715 0.478085 10.8705 0.558076C10.7694 0.638068 10.6878 0.739911 10.6318 0.855959C10.5757 0.972008 10.5467 1.09925 10.5469 1.22812V9.18187C10.4158 9.17282 10.2845 9.16844 10.1531 9.16874H9.36563C8.6 9.16874 8.00937 8.55624 8.00937 7.81249V1.55624C8.00749 1.38526 7.96872 1.21671 7.8957 1.0621C7.82268 0.907481 7.71715 0.770454 7.5863 0.660378C7.45546 0.550302 7.30239 0.469774 7.13756 0.424295C6.97273 0.378817 6.80003 0.369461 6.63125 0.396868C3.0875 1.05312 0.375 4.26874 0.375 8.00937V15.0531C0.374921 17.4251 1.27304 19.709 2.88869 21.4456C4.50434 23.1822 6.71766 24.2426 9.08344 24.4134C9.13828 26.4459 9.79225 28.4169 10.9633 30.0791C12.1343 31.7413 13.7702 33.0205 15.6656 33.7562L18.8091 34.9572C18.8953 36.1443 19.0834 37.3219 19.3713 38.4769L17.4156 37.9562C17.1395 37.8821 16.8856 37.7417 16.676 37.5473C16.4664 37.3529 16.3073 37.1104 16.2125 36.8406L15.5562 34.9156C15.4605 34.64 15.2592 34.4138 14.9967 34.2866C14.7341 34.1594 14.4318 34.1418 14.1562 34.2375C13.8807 34.3332 13.6544 34.5345 13.5272 34.7971C13.4001 35.0596 13.3824 35.3619 13.4781 35.6375L14.1344 37.5625C14.55 38.7875 15.5781 39.7281 16.825 40.0781L20.1063 40.9531L20.3469 41.7187H15.3812C14.1344 41.7187 12.9969 41.1281 12.2969 40.1219L11.0719 38.2187C10.915 37.9754 10.668 37.8042 10.385 37.7427C10.1021 37.6812 9.80628 37.7344 9.5625 37.8906C9.31916 38.0475 9.14796 38.2945 9.08645 38.5775C9.02495 38.8604 9.07814 39.1562 9.23438 39.4L10.4812 41.3469C11.5969 42.9437 13.4125 43.9062 15.3812 43.9062H21.0294L21.2941 44.755L16.4531 46.05C15.25 46.3781 13.9813 46.0938 13.0625 45.3062L11.75 44.125C11.5368 43.9336 11.2572 43.8334 10.971 43.8456C10.6848 43.8579 10.4148 43.9817 10.2188 44.1906C9.825 44.6281 9.84688 45.3281 10.2844 45.7219L11.6406 46.9469C12.7125 47.8656 14.0687 48.3469 15.4687 48.3469C15.9937 48.3469 16.4969 48.2812 17.0219 48.15L21.9437 46.8331L22.3441 48.1106L21.0688 49.4625C20.4562 50.0969 19.6031 50.4687 18.7063 50.4687H16.7156C16.1031 50.4687 15.6219 50.95 15.6219 51.5625C15.6219 52.175 16.125 52.6781 16.7156 52.6781H18.7281C20.2156 52.6781 21.6594 52.0656 22.6656 50.9719L23.0944 50.5169L23.86 52.9712L20.9813 55.85C19.6688 57.1625 19.6688 59.3063 20.9813 60.6188L21.0031 60.6406C22.3156 61.9531 24.4594 61.9531 25.7719 60.6406L26.6491 59.7634C27.6334 60.7916 28.9722 61.4631 30.4531 61.5812C31.3336 61.6526 32.2188 61.5275 33.045 61.215C33.8713 60.9025 34.6177 60.4105 35.2306 59.7744L36.0969 60.6406C37.4094 61.9531 39.5531 61.9531 40.8656 60.6406L40.8875 60.6188C42.2 59.3063 42.2 57.1625 40.8875 55.85L38.0153 52.9778L38.7372 50.6722L39.2031 51.1687C40.2094 52.2625 41.6531 52.875 43.1406 52.875H45.1531C45.7437 52.875 46.2687 52.3719 46.2687 51.7594C46.2687 51.1469 45.7875 50.6656 45.175 50.6656H43.1625C42.2656 50.6656 41.4125 50.2937 40.8 49.6594L39.4875 48.2681L39.5531 48.0625L39.5334 48.0822L39.8616 47.0322L44.8469 48.3666C45.7745 48.6127 46.7478 48.6319 47.6845 48.4225C48.6211 48.213 49.4936 47.7812 50.2281 47.1634L51.5844 45.9384C52.0219 45.5447 52.0438 44.8447 51.65 44.4072C51.2563 43.9697 50.5562 43.9478 50.1187 44.3416L48.8062 45.5228C47.8875 46.3103 46.6188 46.5947 45.4156 46.2666L40.5091 44.9541L40.7738 44.1031H46.4875C48.4562 44.1031 50.2719 43.1625 51.3875 41.5437L52.6344 39.5969C52.7906 39.3531 52.8438 39.0573 52.7823 38.7744C52.7208 38.4914 52.5496 38.2444 52.3062 38.0875C52.0625 37.9313 51.7667 37.8781 51.4837 37.9396C51.2008 38.0011 50.9538 38.1723 50.7969 38.4156L49.5719 40.3187C48.8719 41.325 47.7344 41.9156 46.4875 41.9156H41.4563L41.6881 41.1675L45.0438 40.275C46.2906 39.925 47.3187 38.9844 47.7344 37.7594L48.3906 35.8344C48.438 35.6979 48.4581 35.5535 48.4497 35.4093C48.4412 35.2651 48.4045 35.1239 48.3415 34.9939C48.2785 34.8639 48.1906 34.7476 48.0827 34.6516C47.9747 34.5556 47.8489 34.4818 47.7125 34.4344C47.576 34.387 47.4316 34.3669 47.2874 34.3753C47.1432 34.3838 47.0021 34.4205 46.8721 34.4835C46.7421 34.5465 46.6257 34.6344 46.5297 34.7423C46.4337 34.8503 46.3599 34.976 46.3125 35.1125L45.6562 37.0375C45.4594 37.5844 45.0219 38 44.4531 38.1531L42.4406 38.6891C42.7623 37.4741 42.9717 36.2323 43.0662 34.9791L46.2687 33.7562C48.1642 33.0205 49.8001 31.7413 50.9711 30.0791C52.1421 28.4169 52.7961 26.4459 52.8509 24.4134C55.2167 24.2426 57.43 23.1822 59.0457 21.4456C60.6613 19.709 61.5595 17.4251 61.5594 15.0531V8.00937C61.5594 4.26874 58.8469 1.05312 55.3031 0.396868C55.1343 0.369461 54.9616 0.378817 54.7968 0.424295C54.632 0.469774 54.4789 0.550302 54.3481 0.660378C54.2172 0.770454 54.1117 0.907481 54.0387 1.0621C53.9657 1.21671 53.9269 1.38526 53.925 1.55624V7.81249C53.925 8.55624 53.3344 9.16874 52.5688 9.16874H51.7812C51.65 9.16874 51.5187 9.17312 51.3875 9.18187V1.24999C51.3875 1.00937 51.2781 0.790617 51.125 0.637492C51.0269 0.531159 50.9022 0.452836 50.7638 0.410552C50.6255 0.368269 50.4783 0.363545 50.3375 0.396868C48.0406 0.878118 46.3125 2.99999 46.3125 5.44999V14.0906H46.2906V24.175C46.2906 25.7062 45.3281 27.0844 43.9062 27.6312L42.4428 28.1891C41.6553 25.1959 40.2041 22.4184 38.1969 20.0625L35.3094 16.5756V5.82187C35.3094 4.02812 36.775 2.56249 38.5687 2.56249C40.3625 2.56249 41.8281 4.02812 41.8281 5.82187L41.85 5.84374C41.85 6.45624 42.3312 6.93749 42.9437 6.93749C43.5562 6.93749 44.0375 6.45624 44.0375 5.84374L44.0156 5.82187C44.0156 2.82499 41.5656 0.374993 38.5687 0.374993C35.5719 0.374993 33.1219 2.82499 33.1219 5.82187V14.6069C32.4386 14.2666 31.6854 14.0904 30.9221 14.0923C30.1589 14.0942 29.4065 14.2719 28.725 14.6156ZM28.725 23.1009C28.7973 23.3056 28.8283 23.5226 28.8161 23.7393C28.804 23.9561 28.7489 24.1682 28.6542 24.3635C28.5595 24.5588 28.4269 24.7334 28.2642 24.8771C28.1015 25.0208 27.9119 25.1308 27.7064 25.2007C27.5009 25.2706 27.2836 25.299 27.067 25.2843C26.8504 25.2696 26.6389 25.2121 26.4447 25.1151C26.2505 25.018 26.0776 24.8834 25.9358 24.7191C25.794 24.5547 25.6862 24.3638 25.6187 24.1575C25.4845 23.7471 25.5175 23.3004 25.7105 22.9141C25.9035 22.5279 26.241 22.2333 26.6498 22.0942C27.0585 21.9552 27.5057 21.9829 27.8941 22.1714C28.2826 22.3598 28.5812 22.6938 28.725 23.1009ZM33.1219 23.1687C33.1825 22.9619 33.2832 22.769 33.4184 22.6012C33.5535 22.4333 33.7204 22.2936 33.9096 22.1902C34.0987 22.0868 34.3063 22.0217 34.5206 21.9986C34.7349 21.9754 34.9516 21.9947 35.1584 22.0553C35.3653 22.1159 35.5581 22.2167 35.726 22.3518C35.8939 22.487 36.0336 22.6539 36.1369 22.843C36.2403 23.0321 36.3055 23.2397 36.3286 23.454C36.3518 23.6683 36.3325 23.885 36.2719 24.0919C36.1495 24.5096 35.8661 24.8616 35.4842 25.0704C35.1023 25.2792 34.653 25.3277 34.2353 25.2053C33.8176 25.0829 33.4656 24.7996 33.2568 24.4176C33.048 24.0357 32.9995 23.5865 33.1219 23.1687Z" fill="black"/>
</svg>
